# Blender 4.5.4 LTS
# www.blender.org
o geometry_0
v -0.569486 -0.874380 0.021587
v -0.561136 -0.874380 0.009298
v -0.560356 -0.889167 0.009665
v -0.564365 -0.896671 0.021293
v -0.564587 -0.896671 0.037526
v -0.567371 -0.874380 0.039708
v -0.569486 0.934518 0.021587
v -0.324553 -0.874380 0.004749
v -0.561136 0.934518 0.009298
v -0.324553 -0.892036 0.007592
v -0.257530 -0.970607 0.033747
v -0.560913 -0.908809 0.028520
v -0.560913 -0.908809 0.034481
v -0.547887 -0.896671 0.044587
v -0.547887 -0.874380 0.049594
v -0.567371 0.934518 0.039708
v -0.564030 0.956810 0.037030
v -0.563919 0.956368 0.022229
v -0.560356 0.948643 0.009665
v 0.322960 -0.874380 0.004749
v -0.257530 -0.892257 0.007592
v -0.324553 1.224746 0.004749
v 0.255938 -0.970607 0.033747
v -0.257530 -0.980980 0.044917
v -0.272894 -0.978773 0.048861
v -0.257530 -0.984070 0.066249
v -0.513263 -0.906823 0.054070
v -0.270000 -0.976345 0.078538
v -0.518829 -0.892036 0.056271
v -0.359066 -0.887180 0.099997
v -0.521056 -0.874380 0.056858
v -0.547887 0.934518 0.049594
v -0.340585 1.262265 0.082371
v -0.560134 0.968507 0.033821
v -0.560134 0.968507 0.030097
v -0.337468 1.259617 0.009371
v -0.339360 1.247037 0.008216
v -0.324553 1.247037 0.005996
v 0.559543 -0.874380 0.009298
v 0.558764 -0.889167 0.009665
v 0.322960 -0.892036 0.007592
v 0.300694 -0.892257 0.007592
v 0.322960 1.224746 0.004749
v 0.559321 -0.908809 0.028520
v 0.255938 -0.980980 0.044917
v 0.255938 -0.984070 0.066249
v -0.257530 -0.977890 0.079785
v -0.425977 -0.907927 0.077639
v -0.091533 -0.908147 0.167054
v -0.178929 -0.907485 0.143944
v -0.271670 -0.890270 0.122869
v -0.024621 -0.888063 0.189468
v -0.036534 -0.874380 0.186680
v -0.100551 -0.874380 0.169530
v -0.391576 -0.874380 0.091560
v -0.521056 0.934518 0.056858
v -0.225578 1.258955 0.122466
v -0.298056 1.260720 0.101593
v -0.324553 1.264472 0.086553
v -0.324553 1.270652 0.066249
v -0.343925 1.264472 0.066249
v -0.344927 1.264472 0.043927
v -0.341587 1.262265 0.021587
v -0.324553 1.266238 0.021587
v -0.324553 1.260058 0.008839
v 0.322960 1.247037 0.005996
v 0.567893 -0.874380 0.021587
v 0.559543 0.934518 0.009298
v 0.562772 -0.896671 0.021293
v 0.558764 0.948643 0.009665
v 0.562995 -0.896671 0.037526
v 0.559321 -0.908809 0.034481
v 0.271302 -0.978773 0.048861
v 0.268407 -0.976345 0.078538
v 0.255938 -0.977890 0.079785
v -0.011930 -0.902409 0.184534
v -0.011930 -0.891153 0.190532
v -0.011930 -0.874380 0.192072
v -0.025290 -0.874380 0.189670
v -0.036534 0.934518 0.186680
v -0.100551 0.934518 0.169530
v -0.391576 0.934518 0.091560
v -0.359066 0.947098 0.099997
v -0.050896 1.260279 0.168210
v -0.024621 0.947761 0.189468
v -0.123597 1.261824 0.147300
v -0.279908 1.262927 0.104014
v -0.279908 1.269107 0.088589
v -0.190619 1.269769 0.110892
v -0.168241 1.270652 0.110892
v -0.324553 1.270652 0.043927
v 0.322960 1.266238 0.021587
v 0.322960 1.260058 0.008839
v 0.337768 1.247037 0.008216
v 0.335875 1.259617 0.009371
v 0.565778 -0.874380 0.039708
v 0.567893 0.934518 0.021587
v 0.562327 0.956368 0.022229
v 0.546295 -0.896671 0.044587
v 0.546295 -0.874380 0.049594
v 0.511670 -0.906823 0.054070
v 0.424385 -0.907927 0.077639
v 0.089940 -0.908147 0.167054
v 0.010337 -0.902409 0.184534
v 0.010337 -0.891153 0.190532
v 0.010337 -0.874380 0.192072
v -0.011930 -0.851868 0.192109
v -0.011930 -0.472255 0.192127
v -0.025290 0.934518 0.189669
v -0.034196 1.262486 0.170429
v -0.011930 0.934518 0.192072
v -0.190619 1.263590 0.127106
v -0.034196 1.268666 0.155572
v -0.011930 1.270211 0.155572
v -0.078952 1.270652 0.133232
v 0.322960 1.270652 0.043927
v 0.339994 1.262265 0.021587
v 0.558541 0.968507 0.030097
v 0.565778 0.934518 0.039708
v 0.562438 0.956810 0.037030
v 0.517237 -0.892036 0.056271
v 0.519463 -0.874380 0.056858
v 0.357474 -0.887180 0.099997
v 0.546295 0.934518 0.049594
v 0.177337 -0.907485 0.143944
v 0.023029 -0.888063 0.189468
v 0.023697 -0.874380 0.189670
v 0.010337 -0.851868 0.192109
v 0.010337 -0.740191 0.192127
v -0.011930 0.800330 0.192127
v -0.011930 0.912006 0.192109
v -0.011930 1.264031 0.172978
v -0.101219 1.263810 0.150106
v 0.010337 0.934518 0.192072
v 0.010337 1.270211 0.155572
v 0.077360 1.270652 0.133232
v 0.322960 1.270652 0.066249
v 0.343334 1.264472 0.043927
v 0.558541 0.968507 0.033821
v 0.338881 1.262265 0.082371
v 0.270077 -0.890270 0.122869
v 0.389983 -0.874380 0.091560
v 0.519463 0.934518 0.056858
v 0.098958 -0.874380 0.169530
v 0.034942 -0.874380 0.186680
v 0.296463 1.260720 0.101593
v 0.223985 1.258955 0.122466
v 0.023697 0.934518 0.189669
v 0.010337 0.532394 0.192127
v 0.010337 0.912006 0.192109
v 0.010337 1.264031 0.172978
v 0.023029 0.947761 0.189468
v 0.049304 1.260279 0.168210
v 0.032604 1.262486 0.170429
v 0.032604 1.268666 0.155572
v 0.189027 1.269769 0.110892
v 0.166649 1.270652 0.110892
v 0.278316 1.269107 0.088589
v 0.322960 1.264472 0.086553
v 0.342332 1.264472 0.066249
v 0.389983 0.934518 0.091560
v 0.357474 0.947098 0.099997
v 0.098958 0.934518 0.169530
v 0.034942 0.934518 0.186680
v 0.278316 1.262927 0.104014
v 0.122004 1.261824 0.147300
v 0.099626 1.263810 0.150106
v 0.189027 1.263590 0.127106
vn -0.8258 -0.0575 -0.5611
vn -0.8809 -0.1967 -0.4306
vn -0.9746 -0.2237 -0.0133
vn -0.9843 -0.1342 0.1149
vn -0.9933 -0.0000 0.1159
vn -0.8271 -0.0000 -0.5620
vn -0.0192 -0.0258 -0.9995
vn -0.0192 -0.0000 -0.9998
vn -0.0106 -0.1590 -0.9872
vn -0.0123 -0.3252 -0.9456
vn -0.1272 -0.6850 -0.7174
vn -0.6499 -0.5166 -0.5574
vn -0.9597 -0.2807 -0.0131
vn -0.9571 -0.2897 -0.0000
vn -0.3677 -0.3294 0.8696
vn -0.3814 -0.2026 0.9019
vn -0.4479 -0.1424 0.8827
vn -0.4525 -0.0000 0.8918
vn -0.9804 0.1606 0.1144
vn -0.9688 0.2473 -0.0146
vn -0.8864 0.2375 -0.3974
vn -0.8256 0.0601 -0.5610
vn -0.0000 -0.1571 -0.9876
vn -0.0005 -0.1590 -0.9873
vn -0.0000 -0.0000 -1.0000
vn -0.0547 0.0289 -0.9981
vn -0.0010 -0.3166 -0.9485
vn -0.0000 -0.3166 -0.9485
vn -0.0000 -0.7328 -0.6805
vn -0.1363 -0.7259 -0.6741
vn -0.2074 -0.9362 -0.2839
vn -0.2288 -0.9690 -0.0930
vn -0.2408 -0.9706 -0.0000
vn -0.3425 -0.3562 0.8694
vn -0.2594 -0.9142 0.3115
vn -0.2603 -0.6643 0.7006
vn -0.3365 -0.2064 0.9188
vn -0.3248 -0.2577 0.9100
vn -0.2615 -0.0663 0.9629
vn -0.2609 -0.0535 0.9639
vn -0.2613 -0.0000 0.9653
vn -0.4457 0.1723 0.8784
vn -0.4318 0.1848 0.8828
vn -0.6685 0.3955 0.6299
vn -0.9488 0.3160 -0.0000
vn -0.9515 0.3073 -0.0163
vn -0.7226 0.5203 -0.4551
vn -0.7007 0.5017 -0.5072
vn -0.1607 0.1142 -0.9804
vn -0.1474 0.1044 -0.9835
vn -0.0859 0.0557 -0.9947
vn 0.0192 -0.0258 -0.9995
vn 0.0106 -0.1590 -0.9872
vn 0.0016 -0.1590 -0.9873
vn 0.0192 -0.0000 -0.9998
vn -0.0000 0.0559 -0.9984
vn 0.1363 -0.7259 -0.6741
vn 0.0032 -0.3183 -0.9480
vn 0.0123 -0.3252 -0.9456
vn 0.1272 -0.6850 -0.7174
vn -0.0000 -0.9897 -0.1434
vn -0.1762 -0.9742 -0.1411
vn -0.0000 -0.9097 0.4153
vn -0.1524 -0.8990 0.4105
vn -0.2561 -0.2359 0.9374
vn -0.2298 -0.5130 0.8270
vn -0.1533 -0.6090 0.7782
vn -0.2240 -0.4997 0.8367
vn -0.2531 -0.2090 0.9446
vn -0.2532 -0.2070 0.9450
vn -0.2551 -0.1735 0.9512
vn -0.2584 -0.0282 0.9656
vn -0.2587 -0.0211 0.9657
vn -0.2587 -0.0206 0.9657
vn -0.2588 -0.0208 0.9657
vn -0.2551 -0.1692 0.9520
vn -0.2589 -0.0000 0.9659
vn -0.2611 0.0427 0.9644
vn -0.2750 0.0576 0.9597
vn -0.4014 0.1637 0.9012
vn -0.2673 0.7126 0.6486
vn -0.2033 0.9367 0.2851
vn -0.2984 0.9354 0.1898
vn -0.7961 0.5552 0.2409
vn -0.8088 0.5869 0.0363
vn -0.8088 0.5881 -0.0000
vn -0.7922 0.5843 -0.1762
vn -0.7500 0.5472 -0.3715
vn -0.2183 0.9359 -0.2765
vn -0.0487 0.8988 -0.4357
vn -0.0475 0.2130 -0.9759
vn -0.1473 0.1124 -0.9827
vn -0.0000 0.2133 -0.9770
vn 0.8258 -0.0574 -0.5611
vn 0.8271 -0.0000 -0.5620
vn 0.8809 -0.1967 -0.4305
vn 0.6499 -0.5166 -0.5574
vn 0.0859 0.0557 -0.9947
vn 0.0547 0.0289 -0.9981
vn 0.9597 -0.2807 -0.0132
vn 0.9571 -0.2897 -0.0000
vn 0.2408 -0.9706 -0.0000
vn 0.2288 -0.9690 -0.0930
vn 0.2074 -0.9362 -0.2839
vn 0.1762 -0.9742 -0.1411
vn 0.1524 -0.8990 0.4105
vn 0.2594 -0.9142 0.3114
vn -0.0000 -0.8113 0.5846
vn -0.1165 -0.6560 0.7458
vn -0.2393 -0.3782 0.8943
vn -0.1579 -0.4644 0.8715
vn -0.1754 -0.4129 0.8937
vn -0.2511 -0.2163 0.9435
vn -0.2530 -0.2057 0.9453
vn -0.1770 -0.0231 0.9839
vn -0.2569 -0.0268 0.9661
vn -0.1052 -0.0910 0.9903
vn -0.2570 -0.0000 0.9664
vn -0.2569 -0.0000 0.9664
vn -0.2588 -0.0000 0.9659
vn -0.2588 0.0212 0.9657
vn -0.2601 0.0419 0.9647
vn -0.2032 0.6199 0.7579
vn -0.2583 0.0410 0.9652
vn -0.2534 0.0444 0.9663
vn -0.1926 0.6678 0.7190
vn -0.1768 0.7328 0.6570
vn -0.1706 0.8426 0.5107
vn -0.1126 0.9224 0.3695
vn -0.1119 0.9507 0.2893
vn -0.0486 0.9851 0.1651
vn -0.0391 0.9898 0.1368
vn -0.0000 1.0000 -0.0001
vn -0.0000 1.0000 -0.0000
vn -0.2903 0.9569 -0.0000
vn -0.3039 0.9526 0.0136
vn -0.2875 0.9480 -0.1366
vn -0.2230 0.9563 -0.1890
vn -0.0000 0.9810 -0.1938
vn -0.0000 0.8998 -0.4362
vn -0.0000 0.8999 -0.4362
vn 0.1474 0.1044 -0.9835
vn 0.0475 0.2131 -0.9759
vn 0.1473 0.1124 -0.9827
vn 0.9843 -0.1341 0.1149
vn 0.9746 -0.2237 -0.0134
vn 0.9933 -0.0000 0.1159
vn 0.8256 0.0601 -0.5610
vn 0.8864 0.2375 -0.3974
vn 0.1607 0.1142 -0.9804
vn 0.7007 0.5018 -0.5072
vn 0.3677 -0.3294 0.8696
vn 0.4479 -0.1423 0.8827
vn 0.3814 -0.2026 0.9019
vn 0.3425 -0.3562 0.8694
vn 0.2603 -0.6643 0.7006
vn 0.2298 -0.5130 0.8270
vn 0.2240 -0.4997 0.8367
vn 0.1533 -0.6090 0.7783
vn 0.1165 -0.6560 0.7458
vn -0.0000 -0.4702 0.8825
vn -0.0000 -0.4703 0.8825
vn -0.0000 -0.0915 0.9958
vn -0.0000 -0.0016 1.0000
vn -0.1770 -0.0016 0.9842
vn -0.1795 -0.0000 0.9837
vn -0.1809 -0.0000 0.9835
vn -0.2569 0.0277 0.9661
vn -0.2584 0.0291 0.9656
vn -0.2587 0.0214 0.9657
vn -0.2587 0.0209 0.9657
vn -0.1842 0.6980 0.6920
vn -0.1454 0.0550 0.9879
vn -0.1388 0.0558 0.9887
vn -0.1770 0.0239 0.9839
vn -0.1644 0.7724 0.6135
vn -0.1638 0.7742 0.6113
vn -0.1025 0.9234 0.3699
vn -0.0955 0.9302 0.3545
vn -0.0947 0.9302 0.3545
vn -0.0669 0.9638 0.2580
vn -0.0390 0.9885 0.1462
vn -0.0198 0.9967 0.0790
vn 0.2230 0.9563 -0.1890
vn 0.2183 0.9359 -0.2765
vn 0.0487 0.8988 -0.4357
vn 0.7500 0.5472 -0.3716
vn 0.7226 0.5203 -0.4551
vn 0.4525 -0.0000 0.8918
vn 0.9688 0.2472 -0.0147
vn 0.9804 0.1606 0.1144
vn 0.9515 0.3073 -0.0163
vn 0.3365 -0.2064 0.9188
vn 0.3248 -0.2577 0.9100
vn 0.2609 -0.0536 0.9639
vn 0.2615 -0.0663 0.9629
vn 0.2613 -0.0000 0.9653
vn 0.2561 -0.2359 0.9374
vn 0.2531 -0.2090 0.9446
vn 0.2394 -0.3780 0.8943
vn 0.1579 -0.4644 0.8715
vn 0.2511 -0.2163 0.9435
vn 0.1754 -0.4129 0.8937
vn 0.1052 -0.0910 0.9903
vn 0.1770 -0.0232 0.9839
vn 0.1770 -0.0016 0.9842
vn -0.0000 -0.0002 1.0000
vn -0.0006 -0.0000 1.0000
vn -0.0000 -0.0000 1.0000
vn -0.1794 0.0002 0.9838
vn -0.1770 0.0016 0.9842
vn -0.1109 0.8986 0.4245
vn -0.1135 0.8945 0.4324
vn -0.1175 0.0574 0.9914
vn -0.0000 0.0016 1.0000
vn -0.0000 0.0578 0.9983
vn -0.0970 0.9246 0.3683
vn -0.0971 0.9238 0.3702
vn -0.0652 0.9404 0.3339
vn -0.0000 0.9424 0.3346
vn -0.0000 0.9998 0.0198
vn 0.2903 0.9569 -0.0000
vn 0.2875 0.9480 -0.1366
vn 0.7922 0.5843 -0.1762
vn 0.8088 0.5881 -0.0000
vn 0.9487 0.3160 -0.0000
vn 0.4457 0.1723 0.8784
vn 0.6682 0.3955 0.6301
vn 0.4317 0.1849 0.8828
vn 0.2532 -0.2069 0.9450
vn 0.2551 -0.1735 0.9512
vn 0.2588 -0.0208 0.9657
vn 0.2589 -0.0000 0.9659
vn 0.2587 -0.0206 0.9657
vn 0.2587 -0.0211 0.9657
vn 0.2584 -0.0282 0.9656
vn 0.2551 -0.1692 0.9520
vn 0.4022 0.1644 0.9007
vn 0.2750 0.0576 0.9597
vn 0.2611 0.0427 0.9644
vn 0.2530 -0.2057 0.9453
vn 0.2569 -0.0268 0.9661
vn 0.1794 -0.0002 0.9838
vn 0.2569 -0.0000 0.9664
vn 0.2570 -0.0000 0.9664
vn 0.1809 -0.0000 0.9835
vn 0.0006 -0.0000 1.0000
vn -0.0000 0.0002 1.0000
vn 0.1770 0.0016 0.9842
vn 0.1770 0.0239 0.9839
vn 0.1454 0.0550 0.9879
vn 0.1388 0.0558 0.9887
vn 0.1175 0.0574 0.9914
vn 0.0652 0.9404 0.3339
vn 0.0669 0.9638 0.2580
vn 0.0390 0.9885 0.1462
vn 0.0198 0.9967 0.0790
vn 0.0391 0.9898 0.1368
vn 0.0486 0.9851 0.1651
vn 0.1119 0.9507 0.2893
vn 0.2047 0.9364 0.2850
vn 0.2983 0.9350 0.1918
vn 0.3039 0.9526 0.0136
vn 0.8088 0.5869 0.0363
vn 0.7953 0.5540 0.2461
vn 0.2695 0.7091 0.6516
vn 0.2588 -0.0000 0.9659
vn 0.2601 0.0419 0.9647
vn 0.2588 0.0212 0.9657
vn 0.1706 0.8426 0.5108
vn 0.1768 0.7329 0.6570
vn 0.1926 0.6678 0.7190
vn 0.2032 0.6198 0.7580
vn 0.2534 0.0444 0.9663
vn 0.2583 0.0410 0.9652
vn 0.2569 0.0277 0.9661
vn 0.1795 -0.0000 0.9837
vn 0.1109 0.8986 0.4245
vn 0.0971 0.9238 0.3702
vn 0.2584 0.0291 0.9656
vn 0.1842 0.6980 0.6920
vn 0.1644 0.7725 0.6134
vn 0.1638 0.7742 0.6114
vn 0.1135 0.8945 0.4324
vn 0.0970 0.9246 0.3683
vn 0.0947 0.9302 0.3545
vn 0.0955 0.9302 0.3545
vn 0.1025 0.9234 0.3699
vn 0.1126 0.9224 0.3695
vn 0.2587 0.0209 0.9657
vn 0.2587 0.0214 0.9657
s 0
f 1//1 2//1 3//1
f 1//2 3//2 4//2
f 1//3 4//3 5//3
f 1//4 5//4 6//4
f 1//5 6//5 16//5
f 1//5 16//5 7//5
f 1//6 7//6 9//6
f 1//6 9//6 2//6
f 2//7 8//7 3//7
f 2//8 9//8 22//8
f 2//8 22//8 8//8
f 3//9 8//9 10//9
f 3//10 10//10 11//10
f 3//11 11//11 12//11
f 3//12 12//12 4//12
f 4//13 12//13 5//13
f 5//14 12//14 13//14
f 5//15 13//15 14//15
f 5//16 14//16 15//16
f 5//17 15//17 6//17
f 6//18 15//18 32//18
f 6//18 32//18 16//18
f 7//19 16//19 17//19
f 7//20 17//20 18//20
f 7//21 18//21 19//21
f 7//22 19//22 9//22
f 8//23 20//23 42//23
f 8//23 42//23 21//23
f 8//24 21//24 10//24
f 8//25 22//25 43//25
f 8//25 43//25 20//25
f 9//26 19//26 22//26
f 10//27 21//27 11//27
f 11//28 21//28 42//28
f 11//28 42//28 23//28
f 11//29 23//29 45//29
f 11//29 45//29 24//29
f 11//30 24//30 12//30
f 12//31 24//31 25//31
f 12//32 25//32 26//32
f 12//33 26//33 13//33
f 13//34 27//34 14//34
f 13//35 26//35 28//35
f 13//36 28//36 27//36
f 14//37 29//37 15//37
f 14//38 27//38 29//38
f 15//39 29//39 30//39
f 15//40 30//40 31//40
f 15//41 31//41 56//41
f 15//41 56//41 32//41
f 16//42 32//42 17//42
f 17//43 32//43 33//43
f 17//44 33//44 34//44
f 17//45 34//45 35//45
f 17//46 35//46 18//46
f 18//47 35//47 36//47
f 18//48 36//48 19//48
f 19//49 36//49 37//49
f 19//50 37//50 38//50
f 19//51 38//51 22//51
f 20//52 39//52 40//52
f 20//53 40//53 41//53
f 20//54 41//54 42//54
f 20//55 43//55 68//55
f 20//55 68//55 39//55
f 22//56 38//56 66//56
f 22//56 66//56 43//56
f 23//57 44//57 45//57
f 23//58 42//58 41//58
f 23//59 41//59 40//59
f 23//60 40//60 44//60
f 24//61 45//61 46//61
f 24//61 46//61 26//61
f 24//62 26//62 25//62
f 26//63 46//63 75//63
f 26//63 75//63 47//63
f 26//64 47//64 28//64
f 27//65 48//65 29//65
f 27//66 28//66 48//66
f 28//67 47//67 49//67
f 28//68 49//68 48//68
f 29//69 48//69 50//69
f 29//70 50//70 51//70
f 29//71 51//71 30//71
f 30//72 52//72 53//72
f 30//73 53//73 54//73
f 30//74 54//74 55//74
f 30//75 55//75 31//75
f 30//76 51//76 52//76
f 31//77 55//77 82//77
f 31//77 82//77 56//77
f 32//78 56//78 57//78
f 32//79 57//79 58//79
f 32//80 58//80 33//80
f 33//81 58//81 59//81
f 33//82 59//82 60//82
f 33//83 60//83 61//83
f 33//84 61//84 34//84
f 34//85 61//85 62//85
f 34//86 62//86 35//86
f 35//87 62//87 63//87
f 35//88 63//88 36//88
f 36//89 63//89 64//89
f 36//90 64//90 65//90
f 36//91 65//91 38//91
f 36//92 38//92 37//92
f 38//93 65//93 93//93
f 38//93 93//93 66//93
f 39//94 67//94 40//94
f 39//95 68//95 97//95
f 39//95 97//95 67//95
f 40//96 67//96 69//96
f 40//97 69//97 44//97
f 43//98 66//98 70//98
f 43//99 70//99 68//99
f 44//100 69//100 71//100
f 44//101 71//101 72//101
f 44//102 72//102 46//102
f 44//103 46//103 73//103
f 44//104 73//104 45//104
f 45//105 73//105 46//105
f 46//106 74//106 75//106
f 46//107 72//107 74//107
f 47//108 75//108 104//108
f 47//108 104//108 76//108
f 47//109 76//109 49//109
f 48//110 49//110 50//110
f 49//111 76//111 77//111
f 49//112 77//112 52//112
f 49//113 52//113 50//113
f 50//114 52//114 51//114
f 52//115 78//115 79//115
f 52//116 79//116 53//116
f 52//117 77//117 78//117
f 53//118 79//118 109//118
f 53//119 109//119 80//119
f 53//120 80//120 81//120
f 53//120 81//120 54//120
f 54//120 81//120 82//120
f 54//120 82//120 55//120
f 56//121 82//121 83//121
f 56//122 83//122 57//122
f 57//123 84//123 58//123
f 57//124 83//124 85//124
f 57//125 85//125 84//125
f 58//126 84//126 86//126
f 58//127 86//127 87//127
f 58//128 87//128 59//128
f 59//129 87//129 88//129
f 59//130 88//130 60//130
f 60//131 88//131 89//131
f 60//132 89//132 90//132
f 60//133 90//133 115//133
f 60//134 115//134 136//134
f 60//134 136//134 157//134
f 60//134 157//134 137//134
f 60//134 137//134 116//134
f 60//134 116//134 91//134
f 60//135 91//135 62//135
f 60//136 62//136 61//136
f 62//137 91//137 63//137
f 63//138 91//138 64//138
f 64//139 91//139 116//139
f 64//139 116//139 92//139
f 64//140 92//140 93//140
f 64//141 93//141 65//141
f 66//142 94//142 70//142
f 66//143 93//143 95//143
f 66//144 95//144 94//144
f 67//145 96//145 71//145
f 67//146 71//146 69//146
f 67//147 97//147 119//147
f 67//147 119//147 96//147
f 68//148 70//148 97//148
f 70//149 98//149 97//149
f 70//150 94//150 95//150
f 70//151 95//151 98//151
f 71//152 99//152 72//152
f 71//153 96//153 100//153
f 71//154 100//154 99//154
f 72//155 99//155 101//155
f 72//156 101//156 74//156
f 74//157 101//157 102//157
f 74//158 102//158 103//158
f 74//159 103//159 75//159
f 75//160 103//160 104//160
f 76//161 104//161 105//161
f 76//162 105//162 77//162
f 77//163 105//163 106//163
f 77//163 106//163 78//163
f 78//164 106//164 128//164
f 78//164 128//164 107//164
f 78//165 107//165 79//165
f 79//166 107//166 108//166
f 79//167 108//167 130//167
f 79//167 130//167 109//167
f 80//168 109//168 85//168
f 80//169 85//169 83//169
f 80//170 83//170 81//170
f 81//171 83//171 82//171
f 84//172 110//172 86//172
f 84//173 85//173 111//173
f 84//174 111//174 110//174
f 85//175 109//175 111//175
f 86//176 110//176 87//176
f 87//177 110//177 112//177
f 87//178 112//178 88//178
f 88//179 112//179 89//179
f 89//180 112//180 113//180
f 89//181 113//181 114//181
f 89//182 114//182 90//182
f 90//183 114//183 115//183
f 92//184 116//184 117//184
f 92//185 117//185 95//185
f 92//186 95//186 93//186
f 95//187 117//187 118//187
f 95//188 118//188 98//188
f 96//189 119//189 124//189
f 96//189 124//189 100//189
f 97//190 98//190 120//190
f 97//191 120//191 119//191
f 98//192 118//192 120//192
f 99//193 100//193 121//193
f 99//194 121//194 101//194
f 100//195 122//195 123//195
f 100//196 123//196 121//196
f 100//197 124//197 143//197
f 100//197 143//197 122//197
f 101//198 121//198 102//198
f 102//199 121//199 125//199
f 102//200 125//200 103//200
f 103//201 105//201 104//201
f 103//202 125//202 126//202
f 103//203 126//203 105//203
f 105//204 126//204 106//204
f 106//205 126//205 127//205
f 106//206 127//206 128//206
f 107//207 128//207 129//207
f 107//208 129//208 108//208
f 108//209 129//209 149//209
f 108//209 149//209 130//209
f 109//210 130//210 131//210
f 109//211 131//211 111//211
f 110//212 132//212 133//212
f 110//213 133//213 112//213
f 110//214 111//214 132//214
f 111//215 131//215 150//215
f 111//215 150//215 134//215
f 111//216 134//216 151//216
f 111//216 151//216 132//216
f 112//217 133//217 113//217
f 113//218 133//218 132//218
f 113//219 132//219 114//219
f 114//220 132//220 151//220
f 114//220 151//220 135//220
f 114//221 135//221 136//221
f 114//221 136//221 115//221
f 116//222 137//222 138//222
f 116//223 138//223 117//223
f 117//224 138//224 118//224
f 118//225 138//225 139//225
f 118//226 139//226 120//226
f 119//227 120//227 124//227
f 120//228 139//228 140//228
f 120//229 140//229 124//229
f 121//230 141//230 125//230
f 121//231 123//231 141//231
f 122//232 142//232 123//232
f 122//233 143//233 161//233
f 122//233 161//233 142//233
f 123//234 142//234 144//234
f 123//235 144//235 145//235
f 123//236 145//236 126//236
f 123//237 126//237 141//237
f 124//238 140//238 146//238
f 124//239 146//239 147//239
f 124//240 147//240 143//240
f 125//241 141//241 126//241
f 126//242 145//242 127//242
f 127//243 129//243 128//243
f 127//244 145//244 164//244
f 127//245 164//245 148//245
f 127//246 148//246 149//246
f 127//246 149//246 129//246
f 130//247 149//247 150//247
f 130//248 150//248 131//248
f 134//249 150//249 148//249
f 134//250 148//250 152//250
f 134//251 152//251 153//251
f 134//252 153//252 154//252
f 134//253 154//253 151//253
f 135//254 151//254 155//254
f 135//255 155//255 156//255
f 135//256 156//256 157//256
f 135//257 157//257 136//257
f 137//258 157//258 156//258
f 137//259 156//259 158//259
f 137//260 158//260 159//260
f 137//261 159//261 140//261
f 137//262 140//262 160//262
f 137//263 160//263 138//263
f 138//264 160//264 139//264
f 139//265 160//265 140//265
f 140//266 159//266 146//266
f 142//267 161//267 163//267
f 142//267 163//267 144//267
f 143//268 147//268 162//268
f 143//269 162//269 161//269
f 144//267 163//267 164//267
f 144//267 164//267 145//267
f 146//270 159//270 165//270
f 146//271 165//271 166//271
f 146//272 166//272 153//272
f 146//273 153//273 147//273
f 147//274 153//274 152//274
f 147//275 152//275 162//275
f 148//276 164//276 152//276
f 148//277 150//277 149//277
f 151//278 154//278 167//278
f 151//279 167//279 155//279
f 152//280 164//280 162//280
f 153//281 166//281 154//281
f 154//282 166//282 165//282
f 154//283 165//283 168//283
f 154//284 168//284 167//284
f 155//285 167//285 168//285
f 155//286 168//286 156//286
f 156//287 168//287 158//287
f 158//288 168//288 165//288
f 158//289 165//289 159//289
f 161//290 162//290 163//290
f 162//291 164//291 163//291
